
<svg width="431px" height="557px" viewBox="0 0 431 557" version="1.1" xmlns="http://www.w3.org/2000/svg" xmlns:xlink="http://www.w3.org/1999/xlink">
    <g id="Page-1" stroke="none" stroke-width="1" fill="none" fill-rule="evenodd">
        <g id="dochub" transform="translate(-0.484889, -0.484889)" fill-rule="nonzero">
            <path d="M430.557467,346.348996 C430.557467,486.708582 355.000441,557.026252 203.886389,557.026252 L0.930288992,557.026252 L0.930288992,0.827266711 L203.886389,0.827266711 C225.946834,0.827266711 246.076991,4.41208912 264.001103,10.2001985 L266.482903,16.5453342 L420.906023,170.968454 L428.351423,173.726009 C429.730201,186.410765 430.557467,197.440988 430.557467,211.501765 L430.557467,346.348996 Z M329.355173,201.85032 C329.355173,129.326605 288.267593,92.9268696 205.540922,92.9268696 L100.47805,92.9268696 L100.47805,459.406023 L205.540922,459.406023 C288.267593,459.406023 329.355173,423.282043 329.355173,350.758328 L329.355173,201.85032 L329.355173,201.85032 Z" id="Shape" fill="#FFFFFF"></path>
            <path d="M430.557467,346.348996 C430.557467,486.708582 355.000441,557.026252 203.886389,557.026252 L0.930288992,557.026252 L0.930288992,0.827266711 L203.886389,0.827266711 C225.946834,0.827266711 246.076991,4.41208912 264.001103,10.2001985 L266.482903,16.5453342 L420.906023,170.968454 L428.351423,173.726009 C429.730201,186.410765 430.557467,197.440988 430.557467,211.501765 L430.557467,346.348996 Z M329.355173,201.85032 C329.355173,129.326605 288.267593,92.9268696 205.540922,92.9268696 L100.47805,92.9268696 L100.47805,459.406023 L205.540922,459.406023 C288.267593,459.406023 329.355173,423.282043 329.355173,350.758328 L329.355173,201.85032 L329.355173,201.85032 Z" id="Shape" fill="#000000"></path>
            <polygon id="Path" fill="#32A4FA" points="263.725347 10.2001985 263.725347 173.726009 428.351423 173.726009"></polygon>
        </g>
    </g>
</svg>
