<?xml version="1.0" encoding="utf-8"?>
<!-- Generator: Adobe Illustrator 23.0.3, SVG Export Plug-In . SVG Version: 6.00 Build 0)  -->
<svg version="1.1" id="Layer_1" xmlns="http://www.w3.org/2000/svg" xmlns:xlink="http://www.w3.org/1999/xlink" x="0px" y="0px"
	 viewBox="0 0 148 148.1" style="enable-background:new 0 0 148 148.1;" xml:space="preserve">
<style type="text/css">
	.st0{fill:#EC1C24;}
	.st1{fill:#FFFFFF;}
</style>
<title>Artboard 1</title>
<path class="st0" d="M74,0C33.1,0,0,33.1,0,74s33.1,74,74,74s74-33.1,74-74l0,0C148,33.1,114.9,0,74,0z"/>
<path class="st1" d="M82.5,84.1c-15.1,0-28.6,9.1-34.2,23.1c-6.2-2.4-13.2-0.6-17.5,4.5c7.1,7.8,16.2,13.4,26.3,16.3v-0.1
	c22.1,6.7,46.1-0.9,60.4-19C112.2,94.1,98.2,84.1,82.5,84.1z"/>
<path class="st1" d="M74,17.8c-31.1,0-56.2,25.2-56.3,56.2v0.1h112.6c0-31.1-25.1-56.3-56.2-56.3C74.1,17.8,74.1,17.8,74,17.8
	L74,17.8z M65.4,57.6L58,65l-7.4-7.4L43.1,65l-7.4-7.4l7.4-7.4l-7.4-7.4l7.4-7.4l7.4,7.4l7.4-7.4l7.4,7.4L58,50.2L65.4,57.6z
	 M112.4,57.6L105,65l-7.4-7.4L90.1,65l-7.4-7.4l7.4-7.4l-7.4-7.4l7.4-7.4l7.4,7.4l7.4-7.4l7.4,7.4l-7.4,7.4L112.4,57.6z"/>
</svg>
