
<svg width="105px" height="116px" viewBox="0 0 105 116" version="1.1" xmlns="http://www.w3.org/2000/svg" xmlns:xlink="http://www.w3.org/1999/xlink">
    <g id="Page-1" stroke="none" stroke-width="1" fill="none" fill-rule="evenodd">
        <g id="kava" fill-rule="nonzero">
            <polygon id="Path_3" fill="#FF564F" opacity="0.2" points="10.394 96.4 16.838 115.7 61.079 57.85 16.838 0 10.08 18.884 39.465 57.843"></polygon>
            <polygon id="Path_4" fill="#F08179" points="104.694 115.693 83.699 115.693 39.451 57.843 83.699 0 104.693 0 61.065 57.843"></polygon>
            <rect id="Rectangle_1" fill="#FF564F" x="0" y="0" width="16.824" height="115.693"></rect>
            <polygon id="Path_8" fill="#FF564F" points="104.708 115.693 83.713 115.693 39.465 57.843 83.713 0 104.707 0 61.079 57.843"></polygon>
            <polygon id="Path_9" fill="#FF564F" points="104.708 115.693 83.713 115.693 39.465 57.843 83.713 0 104.707 0 61.079 57.843"></polygon>
            <polygon id="Path_10" fill="#FF564F" points="104.708 115.693 83.713 115.693 39.465 57.843 83.713 0 104.707 0 61.079 57.843"></polygon>
            <polygon id="Path_12" fill="#FF564F" points="104.708 115.693 83.713 115.693 39.465 57.843 83.713 0 104.707 0 61.079 57.843"></polygon>
        </g>
    </g>
</svg>
