
<svg width="290px" height="388px" viewBox="0 0 290 388" version="1.1" xmlns="http://www.w3.org/2000/svg" xmlns:xlink="http://www.w3.org/1999/xlink">
    <g id="Page-1" stroke="none" stroke-width="1" fill="none" fill-rule="evenodd">
        <g id="robinhood-1" transform="translate(0.000000, -0.046892)" fill="#53C38E" fill-rule="nonzero">
            <path d="M121.325833,304.441994 L118.557758,305.575124 C102.018109,311.086992 77.2389874,319.334558 55.7014263,329.816009 C54.5682965,330.354246 53.5080107,332.001331 53.5080107,332.001331 C52.9252582,333.093992 52.3344119,334.227122 51.8690193,335.327877 C49.5622906,340.83165 45.8108214,349.119686 44.6776916,352.952093 L43.6254996,355.764683 L43.6254996,356.820922 L44.0949391,357.407721 L44.6776916,357.407721 L47.3364998,356.315061 C53.5080107,353.498423 61.1728248,349.119686 68.946905,345.287279 L69.4608603,345.287279 C83.6912229,338.654323 97.8428411,331.853721 111.912761,324.886895 C111.912761,324.886895 113.547706,323.794234 114.684882,322.151195 L122.386119,306.671832 L122.386119,305.579171 C122.386119,304.441994 121.799319,303.936133 121.32988,304.441994 M59.5702554,280.209203 C60.7033853,277.983412 65.5920312,268.602716 66.7615831,266.4093 L66.7615831,265.86297 C100.375071,202.468401 141.224402,142.910286 187.970056,88.3096145 L189.143655,86.6463418 C189.738548,86.0797769 189.738548,85.5374933 189.143655,84.9992566 C188.560902,84.4407855 187.970056,83.8742205 187.504663,84.4407855 L185.315295,84.4407855 C154.356568,88.8721326 122.968871,94.3799531 92.1275044,102.085236 C88.7685837,103.198132 87.1295923,104.865451 86.5427929,105.371313 C63.3986156,132.967072 41.8651014,162.181588 21.4161543,191.98695 C22.0838916,193.629988 22.0838916,196.94844 22.0838916,196.94844 C22.0838916,196.94844 26.9725375,235.535558 34.2043342,264.219931 C16.5315553,316.602906 1.0658141e-14,386.059719 1.0658141e-14,386.059719 L1.0658141e-14,387.192849 C1.0658141e-14,387.73918 0.586799391,387.73918 1.05219201,387.73918 L11.5336432,387.73918 C12.0840206,387.73918 12.6667731,387.196896 13.2535725,386.646519 L13.723012,384.420728 C24.2004163,355.764683 36.3937029,327.076263 49.5663375,299.476457 C52.9252582,293.381838 59.5702554,280.209203 59.5702554,280.209203" id="Shape"></path>
            <path d="M204.044312,99.8999142 L204.044312,97.690311 C204.044312,97.1237461 203.449419,96.5531343 202.984027,96.0432258 C202.401274,96.0432258 201.810428,96.0432258 201.26005,96.5531343 L200.171436,98.216407 C144.93945,161.639304 99.2419411,232.209013 62.933223,307.772587 L61.7596242,309.403484 L61.7596242,311.086992 C62.2250168,311.5969 62.2250168,311.5969 62.933223,311.5969 L63.3986156,311.5969 L65.0457008,311.086992 C95.8830205,298.387843 127.388077,287.364109 158.775775,277.983412 C160.418813,277.433035 162.134695,276.340374 163.194981,274.701382 C177.031306,248.234707 208.924865,196.385922 208.924865,196.385922 C210.098463,194.722649 209.592602,193.06747 209.592602,193.06747 C209.592602,193.06747 204.044312,131.299752 204.044312,99.8999142" id="Path"></path>
            <path d="M274.634256,10.5607187 C266.969442,3.91572144 255.237501,0.613457281 237.6578,0.0873612755 C222.295797,-0.479203654 203.449419,3.38962543 181.952327,9.99415375 C178.66625,11.1313305 176.44046,12.7703219 173.672385,14.9394562 C151.661338,35.3641219 130.746998,57.4318259 110.852475,79.4914361 L109.136593,81.1344744 C108.626685,81.7010393 108.626685,82.2271353 109.136593,82.7937003 C109.678877,83.3481245 110.265676,83.8742205 110.852475,83.3481245 L113.045891,82.7896534 C145.643609,75.622607 178.083498,70.6570701 210.098463,67.3183839 C212.287832,67.3183839 214.513623,67.8849488 216.116192,68.9776098 C217.880637,70.6570701 218.341983,72.3203429 218.341983,74.4935241 C217.880637,106.504443 218.932829,138.474892 221.632107,169.352681 L221.632107,171.558237 C221.632107,172.096474 222.295797,172.663039 222.757143,172.663039 L223.352036,172.663039 C223.934788,172.663039 224.404228,172.663039 224.404228,172.096474 L225.537358,170.449389 C243.707904,144.557371 263.027768,119.713499 283.974483,96.0432258 C286.159805,93.2711046 286.750651,91.6078318 287.333404,89.382041 C293.865088,49.1235559 283.974483,18.2821893 274.634256,10.5607187" id="Shape"></path>
        </g>
    </g>
</svg>
