<?xml version="1.0" encoding="UTF-8" standalone="no"?>
<svg xmlns:rdf="http://www.w3.org/1999/02/22-rdf-syntax-ns#" xmlns="http://www.w3.org/2000/svg" xml:space="preserve" height="194.87" viewBox="0 0 152 194.86619" width="152" version="1.1" xmlns:cc="http://creativecommons.org/ns#" xmlns:xlink="http://www.w3.org/1999/xlink" xmlns:dc="http://purl.org/dc/elements/1.1/"><g transform="matrix(1.25 0 0 -1.25 -246.3 901.89)"><g transform="matrix(3.377 0 0 3.377 -608.95 -1526.1)"><g><path d="m238.93 665.27v-6.871h3.266v-26.887h-3.213v-6.49h11.603v-5.442h13.265v6.206h-3.221v15.698l6.121-16.551h7.714v6.444h-2.847l-4.388 12.089 6.76 4.933v10.152l-6.186 6.719h-28.874zm10.335-6.751h15.389l2.493-2.83v-4.232l-2.327-2.438h-3.805v1.208h3.174v6.704h-13.612v-6.75h2.84v-1.162h-4.152v9.5zm0.138-16.44h4.087v-16.341h-1.953v5.678h-2.134v10.663z" fill="#002147"/><path d="m265.09 648.37 2.693 2.822v4.73l-2.844 3.228h-16.318v-10.78h5.432v2.441h-2.841v5.471h12.333v-5.424h-3.174v-2.488h4.719zm-13.869-28.16v4.88h2.905v17.619h-5.367v-11.942h2.135v-5.114h-11.275v5.21h3.213v28.167h-3.267v5.591h27.954l5.828-6.329v-9.577l-6.886-5.025 4.705-12.962h2.655v-5.164h-6.628l-6.397 17.293h-0.81v-17.72h3.222v-4.927h-11.987z" fill="#fff"/><path d="m42.93 9.6719-4.93 4.5291l-0.04687 4.8867-3.7891 4.0273h-5.6855l-7.5215 7.2832v21.795h-3.6719v4.502h13.385v-4.5605h-4.0273v-23.75h2.3691l7.9941 21.617h6.9297v-4.8555h-3.0781l-6.2793-17.295 8.7656-6.3965v-11.252l-0.41406-0.53125zm-30.262 28.773-5.6895 4.9727v0.01172l-0.10938 0.09375-0.021484 1.4531h-1.5312l-0.11914 0.12305-0.046875-0.0039-0.64453 0.3418 0.089844 0.28516-1.6504 1.7129v0.0098l-0.072266 0.03516v2.3926h0.072266v0.01758h12.449v-4.793h-2.666l-0.06055-6.6523z" transform="matrix(.8 0 0 -.8 237.98 666.26)" fill="#68abe8"/><path d="m2.8125 2.8379v5.3301h4.1152l-0.058594 35.355 5.7988-5.0781v-9.8164h8.3555v1.7695l7.373-7.1875h-1.2441v-4.8262h4.0273v-5.125h-13.857v5.2129h3.5527v4.7383h-8.4102v-15.131h21.588l3.998 4.5293v1.5918l4.8281-4.4336-6.3086-6.9297h-33.758zm0.058594 42.227-0.029297 2.6055 2.3691-2.6055h-2.3398z" transform="matrix(.8 0 0 -.8 237.98 666.26)" fill="#002147"/></g><path d="m1.9824 2.0469v6.9883h4.084v35.209h-4.0176v6.5137h14.094v-6.3926h-2.668v-14.928h6.709v22.023h-3.6309v6.0996h14.982v-6.1582h-4.0273v-22.15h1.0137l7.9961 21.615h8.2852v-6.4531h-3.3184l-5.8828-16.203 8.6074-6.2812v-11.971l-7.2852-7.9121h-34.941zm0.80078 0.79883h33.791l6.8359 7.4238v11.254l-8.7656 6.3945 6.2793 17.295h3.0801v4.8555h-6.9316l-7.9941-21.615h-2.3691v23.748h4.0273v4.5605h-13.385v-4.502h3.6309v-23.623h-8.3066v16.527h2.668v4.793h-12.494v-4.9141h4.0156v-36.809h-4.082v-5.3887zm9.7207 5.2402v15.074h8.3887v-4.6504h-3.5527v-5.2402h13.818v5.1797h-3.9668v4.7109h7.0391l3.8242-4.0059v-6.5352l-3.9941-4.5332h-21.557zm0.79883 0.79883h20.396l3.5547 4.0352v5.9141l-3.3652 3.5273h-5.8984v-3.1113h3.9668v-6.7793h-15.416v6.8379h3.5508v3.0527h-6.7891v-13.477z" transform="matrix(.8 0 0 -.8 237.98 666.26)" stroke="#002147" stroke-width=".17750" fill="none"/></g></g></svg>
