
<svg width="1310px" height="833px" viewBox="0 0 1310 833" version="1.1" xmlns="http://www.w3.org/2000/svg" xmlns:xlink="http://www.w3.org/1999/xlink">
    <g id="Page-1" stroke="none" stroke-width="1" fill="none" fill-rule="evenodd">
        <g id="dell-emc-logo" fill-rule="nonzero">
            <path d="M561.875,0 L342.777778,168.611111 C320.243056,84.3055556 247.222222,22.4305556 157.326389,22.4305556 L0,22.4305556 L0,410.173611 L157.326389,410.173611 C247.256944,410.173611 325.902778,348.368056 342.743056,264.0625 L561.840278,432.604167 L781.041667,264.0625 L781.041667,410.138889 L1028.26389,410.138889 L1028.26389,331.493056 L865.347222,331.493056 L865.347222,22.4652778 L775.416667,22.4652778 L775.416667,168.541667 L567.5,337.152778 L522.534722,297.916667 L623.715278,219.166667 L730.451389,134.930556 L668.645833,84.4097222 L460.763889,247.326389 L415.798611,207.986111 L623.715278,50.6597222 L561.875,0.104166667 L561.875,0 Z M84.3055556,101.111111 L151.701389,101.111111 C165.763889,101.111111 179.479167,104.270833 192.118056,110.069444 C204.791667,115.868056 216.354167,124.305556 226.180556,134.826389 C236.006944,145.347222 244.097222,157.951389 249.722222,172.1875 C255.347222,186.423611 258.472222,202.256944 258.472222,219.131944 C258.472222,234.583333 255.625,249.652778 250.486111,263.576389 C245.411767,277.392849 237.883504,290.179132 228.263889,301.319444 C218.868383,312.198333 207.363108,321.05763 194.444444,327.361111 C181.527778,333.611111 167.1875,337.048611 151.736111,337.048611 L84.2708333,337.048611 L84.3055556,101.111111 Z M1309.20139,331.493056 L1309.20139,410.173611 L1061.97917,410.173611 L1061.97917,22.4652778 L1151.875,22.4652778 L1151.875,331.493056 L1309.20139,331.493056 Z" id="Shape" fill="#007DB8"></path>
            <path d="M1056.125,832.305556 C1132.16667,832.305556 1193.97222,794.284722 1205.88194,711.090278 L1201.125,706.333333 L1179.73611,706.333333 L1174.97917,711.090278 C1163.06944,770.5 1125.04861,803.798611 1058.52083,803.798611 C975.326389,803.798611 915.881944,741.993056 915.881944,632.618056 C915.881944,523.243056 977.6875,461.506944 1058.48611,461.506944 C1125.04861,461.506944 1163.10417,494.805556 1174.97917,549.458333 L1179.73611,554.215278 L1201.125,554.215278 L1205.88194,549.458333 C1194.00694,473.416667 1134.5625,433 1056.125,433 C963.416667,433 880.222222,499.5625 880.222222,630.291667 C880.222222,765.777778 963.416667,832.305556 1056.125,832.305556 L1056.125,832.305556 Z M813.694444,820.430556 L813.694444,444.875 L808.9375,440.118056 L770.881944,440.118056 L766.159722,444.875 L623.520833,780.013889 L618.763889,780.013889 L471.402778,444.875 L466.645833,440.118056 L428.625,440.118056 L423.868056,444.875 L423.868056,820.430556 L428.625,825.1875 L450.013889,825.1875 L454.770833,820.430556 L454.770833,501.923611 L459.527778,501.923611 L597.375,820.430556 L602.131944,825.1875 L630.673611,825.1875 L635.430556,820.430556 L773.277778,501.923611 L780.395833,501.923611 L780.395833,820.430556 L785.152778,825.1875 L806.541667,825.1875 L813.694444,820.430556 Z M350.222222,820.430556 L350.222222,803.763889 L345.465278,799.041667 L141.055556,799.041667 L136.298611,794.284722 L136.298611,651.680556 L141.055556,646.923611 L333.555556,646.923611 L338.3125,642.166667 L338.3125,623.138889 L333.555556,618.381944 L141.055556,618.381944 L136.298611,613.625 L136.298611,473.381944 L141.055556,468.659722 L345.465278,468.659722 L350.222222,463.902778 L350.222222,444.875 L345.465278,440.118056 L107.756944,440.118056 L103,444.875 L103,820.430556 L107.756944,825.1875 L345.465278,825.1875 L350.222222,820.430556 Z" id="Shape" fill="#808080"></path>
        </g>
    </g>
</svg>
